<svg width="30" height="30" viewBox="0 0 30 30" fill="none" xmlns="http://www.w3.org/2000/svg">
<path d="M23.75 27.5H6.25C5.25544 27.5 4.30161 27.1049 3.59835 26.4017C2.89509 25.6984 2.5 24.7446 2.5 23.75V3.75C2.5 3.41848 2.6317 3.10054 2.86612 2.86612C3.10054 2.6317 3.41848 2.5 3.75 2.5H21.25C21.5815 2.5 21.8995 2.6317 22.1339 2.86612C22.3683 3.10054 22.5 3.41848 22.5 3.75V12.5H27.5V23.75C27.5 24.7446 27.1049 25.6984 26.4017 26.4017C25.6984 27.1049 24.7446 27.5 23.75 27.5ZM22.5 15V23.75C22.5 24.0815 22.6317 24.3995 22.8661 24.6339C23.1005 24.8683 23.4185 25 23.75 25C24.0815 25 24.3995 24.8683 24.6339 24.6339C24.8683 24.3995 25 24.0815 25 23.75V15H22.5ZM6.25 7.5V15H13.75V7.5H6.25ZM6.25 16.25V18.75H18.75V16.25H6.25ZM6.25 20V22.5H18.75V20H6.25ZM8.75 10H11.25V12.5H8.75V10Z" fill="#60A5FA"/>
</svg>
