<svg width="30" height="30" viewBox="0 0 30 30" fill="none" xmlns="http://www.w3.org/2000/svg">
<g clip-path="url(#clip0_2402_3)">
<path d="M13.5 18H1.5V27C1.5 27.7956 1.81607 28.5587 2.37868 29.1213C2.94129 29.6839 3.70435 30 4.5 30H25.5C26.2956 30 27.0587 29.6839 27.6213 29.1213C28.1839 28.5587 28.5 27.7956 28.5 27V18H16.5V21H13.5V18ZM13.5 16.5H0V7.5C0 5.85 1.35 4.5 3 4.5H9V3C9 2.20435 9.31607 1.44129 9.87868 0.87868C10.4413 0.316071 11.2044 0 12 0L18 0C18.7956 0 19.5587 0.316071 20.1213 0.87868C20.6839 1.44129 21 2.20435 21 3V4.5H27C27.7956 4.5 28.5587 4.81607 29.1213 5.37868C29.6839 5.94129 30 6.70435 30 7.5V16.5H16.5V13.5H13.5V16.5ZM18 4.5V3H12V4.5H18Z" fill="#60A5FA"/>
</g>
<defs>
<clipPath id="clip0_2402_3">
<rect width="30" height="30" fill="white"/>
</clipPath>
</defs>
</svg>
