<svg width="30" height="30" viewBox="0 0 30 30" fill="none" xmlns="http://www.w3.org/2000/svg">
<path d="M8.75 27.5C8.0625 27.5 7.47417 27.2554 6.985 26.7663C6.49583 26.2771 6.25083 25.6883 6.25 25C6.24917 24.3117 6.49417 23.7233 6.985 23.235C7.47583 22.7467 8.06417 22.5017 8.75 22.5C9.43583 22.4983 10.0246 22.7433 10.5163 23.235C11.0079 23.7267 11.2525 24.315 11.25 25C11.2475 25.685 11.0029 26.2738 10.5163 26.7663C10.0296 27.2588 9.44083 27.5033 8.75 27.5ZM21.25 27.5C20.5625 27.5 19.9742 27.2554 19.485 26.7663C18.9958 26.2771 18.7508 25.6883 18.75 25C18.7492 24.3117 18.9942 23.7233 19.485 23.235C19.9758 22.7467 20.5642 22.5017 21.25 22.5C21.9358 22.4983 22.5246 22.7433 23.0163 23.235C23.5079 23.7267 23.7525 24.315 23.75 25C23.7475 25.685 23.5029 26.2738 23.0163 26.7663C22.5296 27.2588 21.9408 27.5033 21.25 27.5ZM6.5 5H24.9375C25.4167 5 25.7813 5.21375 26.0313 5.64125C26.2813 6.06875 26.2917 6.50083 26.0625 6.9375L21.625 14.9375C21.3958 15.3542 21.0887 15.6771 20.7037 15.9063C20.3187 16.1354 19.8967 16.25 19.4375 16.25H10.125L8.75 18.75H23.75V21.25H8.75C7.8125 21.25 7.10417 20.8388 6.625 20.0163C6.14583 19.1938 6.125 18.3758 6.5625 17.5625L8.25 14.5L3.75 5H1.25V2.5H5.3125L6.5 5Z" fill="#60A5FA"/>
</svg>
