<svg width="125" height="32" viewBox="0 0 125 32" fill="none" xmlns="http://www.w3.org/2000/svg">
<g id="Group">
<path id="Shape" fill-rule="evenodd" clip-rule="evenodd" d="M14.4629 14.8349V0.682861L28.9259 14.835H14.463L14.4629 14.8349ZM14.4629 14.8349L0 0.682897V14.835H14.463L14.463 14.835H14.4629V14.8349Z" fill="#8300E6"/>
<path id="Shape_2" fill-rule="evenodd" clip-rule="evenodd" d="M0 17.165V31.3171L14.4385 17.189V31.3171L28.9015 17.165H14.463L14.4385 17.189V17.165H0Z" fill="#45007E"/>
<path id="Shape_3" fill-rule="evenodd" clip-rule="evenodd" d="M115.992 22.2299L112.207 17.3981L115.992 12.9832H113.109L109.775 16.9075V9.47583H107.444V22.2299H109.775V17.8396L113.109 22.2299H115.992ZM35.9268 10.0154V22.2299H38.2579V14.7246L41.8172 22.2299H42.2183L45.7776 14.7246H45.8027V22.2299H48.1589V10.0154H45.6523L42.0428 17.9377H42.0178L38.4083 10.0154H35.9268ZM53.9992 22.5242C55.3026 22.5242 56.3554 22.0827 57.1826 21.2243C58.0098 20.3413 58.4108 19.164 58.3857 17.6188C58.3857 16.0981 57.9596 14.9208 57.1074 14.0379C56.2551 13.1794 55.2024 12.7379 53.9742 12.7379C52.7459 12.7379 51.6932 13.1549 50.8409 14.0379C49.9887 14.9208 49.5626 16.0981 49.5626 17.6188C49.5626 19.164 49.9887 20.3658 50.8159 21.2243C51.6681 22.0827 52.6958 22.5242 53.9992 22.5242ZM52.4197 19.7281C52.7957 20.2187 53.3221 20.464 53.9989 20.464C54.6757 20.464 55.177 20.2187 55.578 19.7281C55.954 19.2376 56.1545 18.5263 56.1545 17.6188C56.1545 16.7113 55.954 16 55.578 15.5095C55.202 15.019 54.6757 14.7737 54.0239 14.7737C53.3722 14.7737 52.8458 15.019 52.4699 15.5095C52.0939 16 51.8933 16.7113 51.8933 17.6188C51.8432 18.5263 52.0437 19.2376 52.4197 19.7281ZM58.4123 12.9832L62.1972 22.2544V22.2299H64.1774L67.9624 12.9832H65.5811L63.1998 18.9433H63.1748L60.8186 12.9832H58.4123ZM74.7053 19.0415L76.3346 20.4395C75.3821 21.813 74.0786 22.4998 72.4243 22.4998C71.0958 22.4998 70.018 22.0583 69.1908 21.1753C68.3636 20.2924 67.9375 19.0905 67.9375 17.6189C67.9375 16.1473 68.3386 14.9455 69.1657 14.0625C69.9929 13.1795 71.0457 12.738 72.299 12.738C73.5523 12.738 74.605 13.1795 75.4071 14.0625C76.2092 14.9455 76.6354 16.1473 76.6354 17.6189V18.3057H70.2937C70.3188 19.017 70.5193 19.5566 70.8953 19.949C71.2462 20.3169 71.7475 20.5131 72.3742 20.5131C72.9006 20.5131 73.3517 20.3905 73.7027 20.1207C74.0786 19.8509 74.4045 19.483 74.7053 19.0415ZM74.4049 16.6132H70.2941C70.3442 16.0736 70.5448 15.6321 70.9207 15.2642C71.2967 14.8963 71.7479 14.7246 72.3244 14.7246C72.926 14.7246 73.4273 14.8718 73.7783 15.2152C74.1292 15.5585 74.3548 16.0245 74.4049 16.6132ZM79.2932 22.2544L77.2127 13.0077H79.4687L80.722 19.1885H80.7721L82.8776 12.9832H84.9832L86.9383 19.1395H86.9634L88.3921 12.9832H90.623L88.367 22.2299H86.086L83.9304 15.5831H83.9053L81.5742 22.2299H79.2932V22.2544ZM95.3107 22.5243C96.6141 22.5243 97.6669 22.0828 98.494 21.2244C99.3212 20.3414 99.7223 19.1641 99.6972 17.6189C99.6972 16.0982 99.2711 14.9209 98.4188 14.038C97.5666 13.1795 96.5138 12.738 95.2856 12.738C94.0574 12.738 93.0046 13.155 92.1524 14.038C91.3001 14.9209 90.874 16.0982 90.874 17.6189C90.874 19.1641 91.3001 20.3659 92.1273 21.2244C92.9796 22.0828 94.0323 22.5243 95.3107 22.5243ZM93.7322 19.7281C94.1082 20.2187 94.6346 20.4639 95.3113 20.4639C95.9881 20.4639 96.4894 20.2187 96.8905 19.7281C97.2665 19.2376 97.467 18.5263 97.467 17.6188C97.467 16.7113 97.2665 16 96.8905 15.5095C96.5145 15.0189 95.9881 14.7737 95.3364 14.7737C94.6847 14.7737 94.1583 15.0189 93.7823 15.5095C93.4063 16 93.2058 16.7113 93.2058 17.6188C93.1557 18.5263 93.3562 19.2376 93.7322 19.7281ZM101.152 12.9832V22.2299H103.483V17.1528C103.483 15.7548 104.035 15.0435 105.113 15.0435C105.338 15.0435 105.589 15.0925 105.84 15.1906L106.191 12.9832C105.915 12.8606 105.639 12.8115 105.338 12.8115C104.912 12.8115 104.536 12.9096 104.185 13.1304C103.834 13.3266 103.559 13.6209 103.383 13.9643H103.358V12.9832H101.152ZM115.941 19.1886L118.022 18.6736C118.197 19.9735 118.899 20.6112 120.152 20.6112C120.729 20.6112 121.18 20.5131 121.506 20.3414C121.857 20.1697 122.007 19.8999 122.007 19.5811C122.007 19.3113 121.882 19.1151 121.606 18.9679C121.356 18.8453 120.804 18.6491 119.977 18.4283C119.751 18.3793 119.576 18.3302 119.451 18.2811C118.348 17.9868 117.546 17.6189 117.044 17.202C116.543 16.785 116.267 16.2454 116.267 15.5586C116.267 14.7983 116.593 14.1361 117.22 13.572C117.846 13.0078 118.724 12.738 119.827 12.738C121.932 12.738 123.261 13.6455 123.812 15.4605L121.882 16.0247C121.707 15.5832 121.481 15.2398 121.18 14.97C120.879 14.7247 120.428 14.5776 119.852 14.5776C119.4 14.5776 119.05 14.6511 118.774 14.8228C118.498 14.9945 118.373 15.1907 118.373 15.436C118.373 15.6813 118.523 15.902 118.849 16.0492C119.175 16.1963 119.952 16.4416 121.205 16.785C122.308 17.0793 123.06 17.4472 123.461 17.8887C123.862 18.3302 124.063 18.9189 124.063 19.6056C124.063 20.3414 123.737 21.0282 123.06 21.5923C122.408 22.1809 121.456 22.4753 120.203 22.4753C118.899 22.4753 117.897 22.1564 117.17 21.4942C116.518 20.881 116.092 20.1207 115.941 19.1886Z" fill="black"/>
</g>
</svg>
