<svg width="744" height="120" viewBox="0 0 744 120" fill="none" xmlns="http://www.w3.org/2000/svg">
<path d="M692.459 60.216C692.459 47.5265 699.227 38.925 708.956 38.925C719.954 38.925 726.44 46.9617 726.44 60.216C726.44 73.4704 719.954 81.6474 708.956 81.6474C699.228 81.6485 692.459 72.9066 692.459 60.216ZM705.29 96.8761C714.456 96.8761 721.505 93.069 726.44 86.7247L727.849 95.4667H743.782V24.9664H727.849L726.44 33.7083C721.505 27.3631 714.455 23.5569 705.29 23.5569C686.397 23.5569 674.13 39.4898 674.13 60.2171C674.13 80.9443 686.397 96.8761 705.29 96.8761ZM645.649 17.3486H663.415V0.0061994H645.649V17.3486ZM645.649 95.4656H663.415V24.9664H645.649V95.4656ZM606.732 96.8761C624.78 96.8761 636.06 87.8523 636.06 73.6118C636.06 63.0371 630.562 56.2695 619.704 54.1537L603.489 51.1922C597.99 50.205 595.452 48.0903 595.452 44.4246C595.452 40.3355 599.823 37.657 606.169 37.657C612.514 37.657 617.025 40.6185 618.154 44.848H634.933C633.664 31.8765 622.665 23.5569 606.45 23.5569C588.967 23.5569 578.11 32.1574 578.11 45.6936C578.11 56.2684 584.737 63.7413 596.863 66.1379L613.078 69.0994C616.743 69.8047 618.718 72.0609 618.718 75.1628C618.718 79.9571 614.347 82.7771 606.874 82.7771C599.26 82.7771 594.466 79.3933 593.479 73.6118H575.854C576.7 87.9928 588.543 96.8761 606.732 96.8761ZM520.021 52.1794C521.571 43.7193 528.621 37.657 536.941 37.657C545.964 37.657 551.604 42.7332 553.155 52.1794H520.021ZM536.941 96.8761C554.706 96.8761 567.679 87.5704 568.806 73.6118H552.45C551.04 79.1104 545.682 82.7771 536.941 82.7771C527.775 82.7771 519.739 75.1628 519.598 64.7295H569.794C569.794 63.4605 569.935 62.1914 569.935 59.7947C569.935 37.5166 557.246 23.558 536.942 23.558C516.779 23.558 502.679 38.3633 502.679 60.2181C502.679 82.0729 516.778 96.8761 536.941 96.8761ZM430.063 95.4656H447.829V54.7175C447.829 45.1298 453.892 38.926 462.069 38.926C469.824 38.926 475.041 44.2842 475.041 53.5899V95.4667H492.807V51.4741C492.807 34.4136 483.359 23.5559 468.555 23.5559C459.531 23.5559 452.199 27.2216 447.828 33.4254V0H430.063V95.4656ZM402.993 95.4656H419.913V80.8018H409.338C405.672 80.8018 402.993 78.1232 402.993 74.4565V39.6303H419.913V24.9664H402.993V4.24992H385.227V24.9664H373.242V39.6303H385.227V77.6999C385.227 87.9927 392.7 95.4656 402.993 95.4656ZM303.73 95.4656H321.495V54.7175C321.495 45.1298 327.559 38.926 335.736 38.926C343.491 38.926 348.707 44.2842 348.707 53.5899V95.4667H366.473V51.4741C366.473 34.4136 357.026 23.5559 342.222 23.5559C332.916 23.5559 325.443 27.5035 321.072 34.1307L319.663 24.9654H303.73V95.4656ZM234.641 120H252.548C259.881 120 266.084 115.488 268.34 108.58L295.975 24.9675H277.222L262.558 73.6118L247.894 24.9675H229.424L253.253 97.0176C254.663 101.107 252.408 105.478 247.613 105.478H234.642L234.641 120ZM198.546 96.8761C216.593 96.8761 227.873 87.8523 227.873 73.6118C227.873 63.0371 222.375 56.2695 211.517 54.1537L195.302 51.1922C189.804 50.205 187.266 48.0903 187.266 44.4246C187.266 40.3355 191.637 37.657 197.982 37.657C204.327 37.657 208.839 40.6185 209.967 44.848H226.746C225.477 31.8765 214.479 23.5569 198.264 23.5569C180.78 23.5569 169.923 32.1574 169.923 45.6936C169.923 56.2684 176.55 63.7413 188.676 66.1379L204.891 69.0994C208.557 69.8047 210.531 72.0609 210.531 75.1628C210.531 79.9571 206.16 82.7771 198.687 82.7771C191.073 82.7771 186.279 79.3933 185.292 73.6118H167.667C168.513 87.9928 180.356 96.8761 198.546 96.8761Z" fill="#0D0F2C"/>
<path d="M24.0923 105.117H101.299C120.319 105.117 132.435 93.4233 134.408 75.53L138.353 38.4764H111.724L108.061 72.2902C107.638 76.7992 104.821 79.3342 100.171 79.3342H26.6284L24.0923 105.117ZM26.6284 79.3342L30.2913 45.5204C30.7143 41.0115 33.5321 38.4764 38.1814 38.4764H111.724L114.261 12.6941H37.0536C18.0336 12.6941 5.91731 24.3884 3.94453 42.2806L0 79.3342H26.6284Z" fill="#3E57DA"/>
</svg>
