<svg id="Layer_1" data-name="Layer 1" xmlns="http://www.w3.org/2000/svg" viewBox="0 0 32 32"><defs><style>.cls-1{fill:#2967ec;}.cls-2{fill:none;}</style></defs><path class="cls-1" d="M31.55,3.85A3,3,0,0,0,30.49,2.1a3.09,3.09,0,0,0-2.07-.7,3.73,3.73,0,0,0-.83.06,3.27,3.27,0,0,0-2.62,3c-1,5.32-1.71,9.14-2,11.45L19.37,4a3.5,3.5,0,0,0-4.11-2.46A3.24,3.24,0,0,0,12.61,4q-2.4,8.33-3.23,11.93L7,4.53c-.43-2-1.58-3-3.47-3a3.71,3.71,0,0,0-.67.06A3.06,3.06,0,0,0,1.07,2.64a3,3,0,0,0-.69,1.9A5.18,5.18,0,0,0,.54,5.83l4.31,18.1a4,4,0,0,0,1.32,2.24,4.21,4.21,0,0,0,2.77,1,6,6,0,0,0,.85-.1A3.83,3.83,0,0,0,13,24.22l-3,.68A.65.65,0,0,1,9.23,24l6.06-11.73a.66.66,0,0,1,1.17,0l5.76,11.93a.66.66,0,0,1-.75.92l-2.12-.54a4.13,4.13,0,0,0,1.34,1.67,4,4,0,0,0,2.56.85,4.73,4.73,0,0,0,.93-.09,3.82,3.82,0,0,0,3.16-3.16L31.47,5.69a5.66,5.66,0,0,0,.15-1.31C31.6,4.2,31.58,4,31.55,3.85Z"/><path class="cls-2" d="M21.47,25.09l-2.12-.54h0a3.61,3.61,0,0,1-.17-.46L15.91,13.42Q15.24,16.5,13,24.1l0,.12-3,.68A.65.65,0,0,1,9.23,24l6.06-11.73a.66.66,0,0,1,1.17,0l5.76,11.93A.66.66,0,0,1,21.47,25.09Z"/><path class="cls-1" d="M19.35,24.55l-1.19-.29a.65.65,0,0,0-.81.62L17.3,29a1.63,1.63,0,0,1-3.25,0v0l.07-4.17a.65.65,0,0,0-.79-.65l-.37.09,0-.12q2.25-7.6,2.92-10.68l3.27,10.67A3.61,3.61,0,0,0,19.35,24.55Z"/></svg>