<svg id="Layer_1" data-name="Layer 1" xmlns="http://www.w3.org/2000/svg" viewBox="0 0 200 80"><defs><style>.cls-1{fill:#2967ec;}.cls-2{fill:none;}</style></defs><path class="cls-1" d="M63.82,16.16a5.86,5.86,0,0,0-2.07-3.43,6.14,6.14,0,0,0-4.06-1.39,7.75,7.75,0,0,0-1.63.13q-4.28.85-5.14,5.86-3,15.68-4,22.48l-7-23.41a6.85,6.85,0,0,0-8.06-4.83,6.31,6.31,0,0,0-5.19,4.88Q22,32.78,20.32,39.87L15.74,17.5q-1.26-6-6.82-5.94a6.23,6.23,0,0,0-1.3.13A6,6,0,0,0,4,13.79a5.7,5.7,0,0,0-1.34,3.72A9.89,9.89,0,0,0,3,20l8.46,35.52A7.84,7.84,0,0,0,14,60a8.2,8.2,0,0,0,5.42,1.91,10.42,10.42,0,0,0,1.68-.2,7.55,7.55,0,0,0,6.22-5.54l-5.92,1.33A1.27,1.27,0,0,1,20,55.62l11.9-23a1.28,1.28,0,0,1,2.29,0L45.52,56a1.28,1.28,0,0,1-1.46,1.8l-4.17-1a8.26,8.26,0,0,0,2.62,3.28,7.85,7.85,0,0,0,5,1.65,8.45,8.45,0,0,0,1.82-.16q5-1,6.19-6.21l8.12-35.57A11.53,11.53,0,0,0,64,17.19,7.09,7.09,0,0,0,63.82,16.16Z"/><path class="cls-2" d="M44.06,57.83l-4.17-1h0a8.15,8.15,0,0,1-.34-.91L33.14,34.93q-1.34,6-5.72,21l-.06.22-5.92,1.33A1.27,1.27,0,0,1,20,55.62l11.9-23a1.28,1.28,0,0,1,2.29,0L45.52,56A1.28,1.28,0,0,1,44.06,57.83Z"/><path class="cls-1" d="M39.89,56.78l-2.33-.58A1.28,1.28,0,0,0,36,57.42l-.1,8.09a3.19,3.19,0,0,1-6.38,0v-.06l.15-8.18A1.28,1.28,0,0,0,28.08,56l-.72.16.06-.22q4.39-14.94,5.72-21l6.41,20.94A8.15,8.15,0,0,0,39.89,56.78Z"/><path class="cls-1" d="M73.67,61.68a17.13,17.13,0,0,1-4.19-.53,10,10,0,0,1-3.74-1.82A9.63,9.63,0,0,1,63,55.88,12.23,12.23,0,0,1,62,50.46a25.67,25.67,0,0,1,.2-2.88,17.93,17.93,0,0,1,.74-3.45,19,19,0,0,1,1.53-3.53A12.14,12.14,0,0,1,67,37.46a12.7,12.7,0,0,1,3.83-2.25,15.2,15.2,0,0,1,5.37-.86,13.54,13.54,0,0,1,4.22.57,7.63,7.63,0,0,1,2.78,1.56,5.88,5.88,0,0,1,1.54,2.28,7.92,7.92,0,0,1,.48,2.78,7.37,7.37,0,0,1-.89,3.74A8.19,8.19,0,0,1,82,47.84a11.24,11.24,0,0,1-3.14,1.61,26.41,26.41,0,0,1-3.41.89,23.38,23.38,0,0,1-3.09.38c-.94.05-1.67.07-2.18.07a6.48,6.48,0,0,0,.26,1.8,4.61,4.61,0,0,0,.8,1.56,3.84,3.84,0,0,0,1.39,1.1,4.61,4.61,0,0,0,2.11.43,3.89,3.89,0,0,0,1.94-.4,4.35,4.35,0,0,0,1.12-.91c.29-.34.54-.64.75-.92a1,1,0,0,1,.84-.4,5.06,5.06,0,0,1,.84.12,3.75,3.75,0,0,1,1.22.5,3.94,3.94,0,0,1,1.1,1.06,2.87,2.87,0,0,1,.48,1.72,3.59,3.59,0,0,1-.86,2.4A6.48,6.48,0,0,1,80,60.48a12.5,12.5,0,0,1-3,.91A19.44,19.44,0,0,1,73.67,61.68Zm.91-21a2.75,2.75,0,0,0-1.79.6,5,5,0,0,0-1.25,1.51,8,8,0,0,0-.77,2c-.17.73-.31,1.44-.41,2.11a10.79,10.79,0,0,0,4.82-1A3,3,0,0,0,77,43.22a2.74,2.74,0,0,0-.6-1.73A2.21,2.21,0,0,0,74.58,40.72Z"/><path class="cls-1" d="M99.08,61.68a13.14,13.14,0,0,1-5.84-1.08A8.33,8.33,0,0,1,90,57.89a8.7,8.7,0,0,1-1.39-3.52,23.63,23.63,0,0,1-.28-3.48c0-.42,0-1.23.12-2.45s.18-2.62.31-4.22.25-3.3.38-5.1.26-3.52.39-5.13.23-3.05.31-4.29.12-2.11.12-2.59a2.74,2.74,0,0,1,.14-1.23c.1-.11.38-.16.86-.16H92.8a7.47,7.47,0,0,1,2.4.33,4.2,4.2,0,0,1,1.54.91,3.38,3.38,0,0,1,.81,1.32,5.22,5.22,0,0,1,.24,1.61c0,.54-.06,1.6-.17,3.16s-.25,3.41-.41,5.52A9.33,9.33,0,0,1,100,35.38a7.53,7.53,0,0,1,4.17-1,8.12,8.12,0,0,1,6.69,2.87q2.32,2.88,2.33,8.59a26,26,0,0,1-.22,3.26,19.75,19.75,0,0,1-.76,3.52A16.2,16.2,0,0,1,110.71,56a10.51,10.51,0,0,1-2.56,2.9,12.92,12.92,0,0,1-3.82,2A16.14,16.14,0,0,1,99.08,61.68Zm2.16-21a3.83,3.83,0,0,0-2.71.92A6.09,6.09,0,0,0,97,43.84a10,10,0,0,0-.67,2.76c-.09,1-.14,1.83-.14,2.56a9.12,9.12,0,0,0,.91,4.73,3,3,0,0,0,2.73,1.41,3.47,3.47,0,0,0,2.71-1.08,7.17,7.17,0,0,0,1.49-2.56,13.23,13.23,0,0,0,.64-3q.15-1.55.15-2.4a8.25,8.25,0,0,0-.82-4.1A3,3,0,0,0,101.24,40.72Z"/><path class="cls-1" d="M146.66,62.44a13,13,0,0,1-6.58-1.7,12.8,12.8,0,0,1-4.67-4.6,13,13,0,0,1,0-13,12.69,12.69,0,0,1,4.67-4.59,13.68,13.68,0,0,1,13.21,0A12.69,12.69,0,0,1,158,43.16a13,13,0,0,1,0,13,12.8,12.8,0,0,1-4.67,4.6A13,13,0,0,1,146.66,62.44Zm0-4.89a7.09,7.09,0,0,0,3.81-1,7.71,7.71,0,0,0,2.7-2.85,8.47,8.47,0,0,0,0-8,7.88,7.88,0,0,0-2.7-2.83,7.38,7.38,0,0,0-7.59,0,7.66,7.66,0,0,0-2.71,2.83,8.69,8.69,0,0,0,0,8,7.5,7.5,0,0,0,2.71,2.85A7.13,7.13,0,0,0,146.66,57.55Z"/><path class="cls-1" d="M173.53,62.44a10.23,10.23,0,0,1-5-1.22,8.7,8.7,0,0,1-3.43-3.43,10.33,10.33,0,0,1-1.22-5.07V38a.73.73,0,0,1,.73-.72h4.1a.73.73,0,0,1,.73.72V51.81A5.77,5.77,0,0,0,171,56a5.58,5.58,0,0,0,4.15,1.58,6.7,6.7,0,0,0,3.25-.77,6.33,6.33,0,0,0,2.22-2,.7.7,0,0,0,.13-.42V38a.72.72,0,0,1,.72-.72h4.16a.72.72,0,0,1,.72.72V61.23a.73.73,0,0,1-.72.73h-4.16a.73.73,0,0,1-.72-.73h0a.72.72,0,0,0-1.15-.58A10.25,10.25,0,0,1,173.53,62.44Z"/><path class="cls-1" d="M191.72,59.16V30.78A2.8,2.8,0,0,1,194,28h0a2.81,2.81,0,0,1,3.3,2.76V59.16a2.81,2.81,0,0,1-2.81,2.8h0A2.81,2.81,0,0,1,191.72,59.16Z"/><path class="cls-1" d="M106.29,14.46a1.43,1.43,0,1,0,1.42,1.43A1.43,1.43,0,0,0,106.29,14.46Zm0,0a1.43,1.43,0,1,0,1.42,1.43A1.43,1.43,0,0,0,106.29,14.46Zm0,0a1.43,1.43,0,1,0,1.42,1.43A1.43,1.43,0,0,0,106.29,14.46Zm35.78,0a1.43,1.43,0,1,0,1.43,1.43A1.43,1.43,0,0,0,142.07,14.46Zm0,0a1.43,1.43,0,1,0,1.43,1.43A1.43,1.43,0,0,0,142.07,14.46Zm-35.78,0a1.43,1.43,0,1,0,1.42,1.43A1.43,1.43,0,0,0,106.29,14.46Zm0,0a1.43,1.43,0,1,0,1.42,1.43A1.43,1.43,0,0,0,106.29,14.46Zm35.78,0a1.43,1.43,0,1,0,1.43,1.43A1.43,1.43,0,0,0,142.07,14.46Zm0,0a1.43,1.43,0,1,0,1.43,1.43A1.43,1.43,0,0,0,142.07,14.46Zm-35.78,0a1.43,1.43,0,1,0,1.42,1.43A1.43,1.43,0,0,0,106.29,14.46Zm0,0a1.43,1.43,0,1,0,1.42,1.43A1.43,1.43,0,0,0,106.29,14.46ZM124,56.52a1.38,1.38,0,1,0,1.38,1.38A1.38,1.38,0,0,0,124,56.52Zm18.11-42.06a1.43,1.43,0,1,0,1.43,1.43A1.43,1.43,0,0,0,142.07,14.46Zm0,0a1.43,1.43,0,1,0,1.43,1.43A1.43,1.43,0,0,0,142.07,14.46ZM124,56.52a1.38,1.38,0,1,0,1.38,1.38A1.38,1.38,0,0,0,124,56.52ZM106.29,14.46a1.43,1.43,0,1,0,1.42,1.43A1.43,1.43,0,0,0,106.29,14.46Zm0,0a1.43,1.43,0,1,0,1.42,1.43A1.43,1.43,0,0,0,106.29,14.46ZM124,56.52a1.38,1.38,0,1,0,1.38,1.38A1.38,1.38,0,0,0,124,56.52Zm18.11-42.06a1.43,1.43,0,1,0,1.43,1.43A1.43,1.43,0,0,0,142.07,14.46Zm0,0a1.43,1.43,0,1,0,1.43,1.43A1.43,1.43,0,0,0,142.07,14.46ZM124,56.52a1.38,1.38,0,1,0,1.38,1.38A1.38,1.38,0,0,0,124,56.52ZM106.29,14.46a1.43,1.43,0,1,0,1.42,1.43A1.43,1.43,0,0,0,106.29,14.46ZM141.86,12H106.44a3.92,3.92,0,0,0,0,7.84h9.41a3.92,3.92,0,0,1,3.91,3.92V57.93a3.92,3.92,0,0,0,3.92,3.92h.93a3.91,3.91,0,0,0,3.92-3.92V23.72a3.93,3.93,0,0,1,3.92-3.92h9.41a3.92,3.92,0,0,0,0-7.84Zm.21,6.36a2.43,2.43,0,0,1-2.23-1.48H125V55.68a2.47,2.47,0,1,1-2.17,0V16.84H108.52a2.44,2.44,0,1,1-.15-2.18H140a2.42,2.42,0,1,1,2.08,3.66Zm0-3.86a1.43,1.43,0,1,0,1.43,1.43A1.43,1.43,0,0,0,142.07,14.46ZM124,56.52a1.38,1.38,0,1,0,1.38,1.38A1.38,1.38,0,0,0,124,56.52ZM106.29,14.46a1.43,1.43,0,1,0,1.42,1.43A1.43,1.43,0,0,0,106.29,14.46Zm0,0a1.43,1.43,0,1,0,1.42,1.43A1.43,1.43,0,0,0,106.29,14.46ZM124,56.52a1.38,1.38,0,1,0,1.38,1.38A1.38,1.38,0,0,0,124,56.52Zm18.11-42.06a1.43,1.43,0,1,0,1.43,1.43A1.43,1.43,0,0,0,142.07,14.46Zm0,0a1.43,1.43,0,1,0,1.43,1.43A1.43,1.43,0,0,0,142.07,14.46ZM124,56.52a1.38,1.38,0,1,0,1.38,1.38A1.38,1.38,0,0,0,124,56.52ZM106.29,14.46a1.43,1.43,0,1,0,1.42,1.43A1.43,1.43,0,0,0,106.29,14.46Zm0,0a1.43,1.43,0,1,0,1.42,1.43A1.43,1.43,0,0,0,106.29,14.46Zm35.78,0a1.43,1.43,0,1,0,1.43,1.43A1.43,1.43,0,0,0,142.07,14.46Zm0,0a1.43,1.43,0,1,0,1.43,1.43A1.43,1.43,0,0,0,142.07,14.46Zm-35.78,0a1.43,1.43,0,1,0,1.42,1.43A1.43,1.43,0,0,0,106.29,14.46Zm0,0a1.43,1.43,0,1,0,1.42,1.43A1.43,1.43,0,0,0,106.29,14.46Zm35.78,0a1.43,1.43,0,1,0,1.43,1.43A1.43,1.43,0,0,0,142.07,14.46Zm0,0a1.43,1.43,0,1,0,1.43,1.43A1.43,1.43,0,0,0,142.07,14.46Zm-35.78,0a1.43,1.43,0,1,0,1.42,1.43A1.43,1.43,0,0,0,106.29,14.46Zm0,0a1.43,1.43,0,1,0,1.42,1.43A1.43,1.43,0,0,0,106.29,14.46Zm35.78,0a1.43,1.43,0,1,0,1.43,1.43A1.43,1.43,0,0,0,142.07,14.46Zm0,0a1.43,1.43,0,1,0,1.43,1.43A1.43,1.43,0,0,0,142.07,14.46Zm-35.78,0a1.43,1.43,0,1,0,1.42,1.43A1.43,1.43,0,0,0,106.29,14.46Z"/><path class="cls-2" d="M125,16.84V42a1.06,1.06,0,0,0,.27-.71V16.84Z"/><path class="cls-2" d="M142.07,13.46a2.43,2.43,0,0,0-2.08,1.2H108.37a2.42,2.42,0,1,0,.15,2.18h14.35V55.68a2.48,2.48,0,1,0,2.17,0V16.84h14.8a2.43,2.43,0,1,0,2.23-3.38Zm-35.78,3.86a1.43,1.43,0,1,1,1.42-1.43A1.43,1.43,0,0,1,106.29,17.32Zm19,40.58A1.38,1.38,0,1,1,124,56.52,1.38,1.38,0,0,1,125.34,57.9Zm16.73-40.58a1.43,1.43,0,1,1,1.43-1.43A1.43,1.43,0,0,1,142.07,17.32Z"/></svg>